<?xml version="1.0" encoding="UTF-8" standalone="no"?>
<!DOCTYPE svg PUBLIC "-//W3C//DTD SVG 1.1//EN" "http://www.w3.org/Graphics/SVG/1.1/DTD/svg11.dtd">
<svg width="100%" height="100%" viewBox="0 0 120 120" version="1.1" xmlns="http://www.w3.org/2000/svg" xmlns:xlink="http://www.w3.org/1999/xlink" xml:space="preserve" xmlns:serif="http://www.serif.com/" style="fill-rule:evenodd;clip-rule:evenodd;stroke-linejoin:round;stroke-miterlimit:1.41421;">
    <g transform="matrix(0.642933,-0.172273,0.172273,0.642933,-689.06,196.376)">
        <g transform="matrix(0.255013,-0.255013,0.255013,0.255013,755.042,197.656)">
            <g transform="matrix(4.11232,0,0,4.11232,-2988.5,-1715.73)">
                <path d="M920.69,543.637C920.69,543.637 923.609,551.727 928.37,556.949L922.841,563.247C922.841,563.247 918.847,568.111 913.983,563.247C909.119,558.383 914.034,549.013 920.69,543.637Z"/>
            </g>
            <g transform="matrix(4.11232,0,0,4.11232,-2988.5,-1715.73)">
                <path d="M946.385,522.162C946.948,522.061 947.531,522.008 948.129,522.008C952.855,522.008 956.691,525.313 956.691,529.383C956.691,529.779 956.655,530.167 956.585,530.545L956.586,530.545C956.586,530.545 956.216,534.994 950.654,541.063C946.12,546.008 939.536,550.264 933.91,553.163C933.91,553.163 928.581,547.483 925.781,537.883C925.781,537.883 927.966,534.436 929.85,531.8C930.342,530.916 930.976,530.103 931.727,529.383L931.727,529.383C931.727,529.383 937.229,522.84 946.385,522.162L946.385,522.162Z"/>
            </g>
        </g>
     <g transform="matrix(0.348354,-0.0933412,0.0933412,0.348354,766.049,-9.46838)">
            <g transform="matrix(-2.51807e-16,-4.11232,-4.11232,2.51807e-16,3273.77,4362.54)">
                <path d="M920.69,543.637C920.69,543.637 923.609,551.727 928.37,556.949L922.841,563.247C922.841,563.247 918.847,568.111 913.983,563.247C909.119,558.383 914.034,549.013 920.69,543.637Z"/>
            </g>
            <g transform="matrix(-2.51807e-16,-4.11232,-4.11232,2.51807e-16,3273.77,4362.54)">
                <path d="M946.385,522.162C946.948,522.061 947.531,522.008 948.129,522.008C952.855,522.008 956.691,525.313 956.691,529.383C956.691,529.779 956.655,530.167 956.585,530.545L956.586,530.545C956.586,530.545 956.216,534.994 950.654,541.063C946.12,546.008 939.536,550.264 933.91,553.163C933.91,553.163 928.581,547.483 925.781,537.883C925.781,537.883 927.966,534.436 929.85,531.8C930.342,530.916 930.976,530.103 931.727,529.383L931.727,529.383C931.727,529.383 937.229,522.84 946.385,522.162L946.385,522.162Z"/>
            </g>
        </g>
    </g>


  <animate
           xlink:href="#a"
           attributeName="transform"
           from="matrix(0.255013,-0.255013,0.255013,0.255013,755.042,197.656)"
           to="matrix(0.455013,-0.255013,0.255013,0.255013,755.042,197.656)"
           dur="0.2s"
           begin="0s"
           repeatCount="indefinite"
           fill="freeze"
           id="circ-anim"/>
</svg>
